<!-- Power curves by effect size | Book: The Research Paper Recipe | Chapter: 07-statistics | Figure: 03 | Generated: 2026-05-29 | Source: pantry/07-statistics-cajal.md -->
<svg viewBox="0 0 700 420" xmlns="http://www.w3.org/2000/svg" role="img" aria-labelledby="fig-title-03 fig-desc-03"><title id="fig-title-03">Power curves by effect size</title><desc id="fig-desc-03">Statistical power versus sample size per group for large, medium, and small effects. All three S-curves rise toward one; reaching 0.80 power needs about 25 per group for a large effect but far more for a small one.</desc><metadata><cajal:figure xmlns:cajal="https://bearbrown.ai/cajal/1.0" book-slug="the-research-paper-recipe" chapter="07-statistics" figure-number="03" date-generated="2026-05-29"/></metadata>
<rect x="0" y="0" width="700" height="420" fill="#FFFFFF"/>
<text x="350" y="32" text-anchor="middle" font-family="'EB Garamond',Georgia,serif" font-size="16" fill="#2a1a0e">Power rises with sample size</text>
<!-- plot bg -->
<rect x="90" y="90" width="550" height="230" fill="#F5F5F5"/>
<!-- axes -->
<line x1="90" y1="320" x2="640" y2="320" stroke="#2a1a0e" stroke-width="1.2"/>
<line x1="90" y1="90" x2="90" y2="320" stroke="#2a1a0e" stroke-width="1.2"/>
<!-- y ticks 0..1 -->
<line x1="86" y1="320" x2="90" y2="320" stroke="#2a1a0e" stroke-width="1"/><text x="80" y="324" text-anchor="end" font-family="'JetBrains Mono','Fira Code',monospace" font-size="11" fill="#545454">0.0</text>
<line x1="86" y1="262.5" x2="90" y2="262.5" stroke="#2a1a0e" stroke-width="1"/><text x="80" y="266" text-anchor="end" font-family="'JetBrains Mono','Fira Code',monospace" font-size="11" fill="#545454">0.25</text>
<line x1="86" y1="205" x2="90" y2="205" stroke="#2a1a0e" stroke-width="1"/><text x="80" y="209" text-anchor="end" font-family="'JetBrains Mono','Fira Code',monospace" font-size="11" fill="#545454">0.50</text>
<line x1="86" y1="147.5" x2="90" y2="147.5" stroke="#2a1a0e" stroke-width="1"/><text x="80" y="151" text-anchor="end" font-family="'JetBrains Mono','Fira Code',monospace" font-size="11" fill="#545454">0.75</text>
<line x1="86" y1="90" x2="90" y2="90" stroke="#2a1a0e" stroke-width="1"/><text x="80" y="94" text-anchor="end" font-family="'JetBrains Mono','Fira Code',monospace" font-size="11" fill="#545454">1.0</text>
<!-- x ticks 0,50,100,150,200 -->
<line x1="90" y1="320" x2="90" y2="324" stroke="#2a1a0e" stroke-width="1"/><text x="90" y="338" text-anchor="middle" font-family="'JetBrains Mono','Fira Code',monospace" font-size="11" fill="#545454">0</text>
<line x1="227.5" y1="320" x2="227.5" y2="324" stroke="#2a1a0e" stroke-width="1"/><text x="227.5" y="338" text-anchor="middle" font-family="'JetBrains Mono','Fira Code',monospace" font-size="11" fill="#545454">50</text>
<line x1="365" y1="320" x2="365" y2="324" stroke="#2a1a0e" stroke-width="1"/><text x="365" y="338" text-anchor="middle" font-family="'JetBrains Mono','Fira Code',monospace" font-size="11" fill="#545454">100</text>
<line x1="502.5" y1="320" x2="502.5" y2="324" stroke="#2a1a0e" stroke-width="1"/><text x="502.5" y="338" text-anchor="middle" font-family="'JetBrains Mono','Fira Code',monospace" font-size="11" fill="#545454">150</text>
<line x1="640" y1="320" x2="640" y2="324" stroke="#2a1a0e" stroke-width="1"/><text x="640" y="338" text-anchor="middle" font-family="'JetBrains Mono','Fira Code',monospace" font-size="11" fill="#545454">200</text>
<text x="365" y="362" text-anchor="middle" font-family="'Inter',-apple-system,'Helvetica Neue',sans-serif" font-size="12" fill="#2a1a0e">Sample size per group</text>
<text x="34" y="205" text-anchor="middle" font-family="'Inter',-apple-system,'Helvetica Neue',sans-serif" font-size="12" fill="#2a1a0e" transform="rotate(-90 34 205)">Statistical power</text>
<!-- 0.80 threshold -->
<line x1="90" y1="136" x2="640" y2="136" stroke="#545454" stroke-width="1" stroke-dasharray="5 3"/>
<text x="636" y="130" text-anchor="end" font-family="'JetBrains Mono','Fira Code',monospace" font-size="11" fill="#545454">0.80 threshold</text>
<!-- drop ticks at crossings -->
<line x1="157.7" y1="136" x2="157.7" y2="320" stroke="#545454" stroke-width="0.8" stroke-dasharray="3 3"/>
<line x1="262.7" y1="136" x2="262.7" y2="320" stroke="#545454" stroke-width="0.8" stroke-dasharray="3 3"/>
<text x="157.7" y="352" text-anchor="middle" font-family="'JetBrains Mono','Fira Code',monospace" font-size="11" fill="#545454">~25</text>
<text x="262.7" y="376" text-anchor="middle" font-family="'JetBrains Mono','Fira Code',monospace" font-size="11" fill="#545454">~63</text>
<!-- large effect curve (red emphasis) -->
<path d="M95.5 291.0 L100.9 273.1 L106.4 255.2 L111.8 237.8 L117.3 221.3 L122.7 205.8 L128.2 191.5 L133.6 178.5 L139.1 166.8 L144.5 156.3 L149.9 147.0 L155.4 138.8 L160.8 131.7 L166.3 125.4 L171.7 120.0 L177.2 115.4 L182.6 111.4 L188.1 108.0 L193.5 105.1 L199.0 102.6 L209.8 98.7 L220.7 96.0 L237.1 93.4 L258.9 91.5 L286.1 90.6 L324.2 90.1 L640 90.0" fill="none" stroke="#C8102E" stroke-width="1.8"/>
<!-- medium effect curve (secondary) -->
<path d="M95.5 301.8 L106.4 288.1 L117.3 274.1 L128.2 260.0 L139.1 246.2 L149.9 232.9 L160.8 220.1 L171.7 208.0 L182.6 196.6 L193.5 185.9 L204.4 176.1 L215.3 167.0 L226.2 158.7 L237.1 151.1 L248.0 144.3 L258.9 138.0 L269.7 132.4 L280.6 127.4 L291.5 122.9 L302.4 118.9 L313.3 115.3 L329.6 110.7 L351.4 105.8 L378.6 101.1 L411.3 97.2 L454.9 94.0 L509.3 91.9 L580.1 90.7 L640 90.3" fill="none" stroke="#545454" stroke-width="1.6"/>
<!-- small effect curve (ochre, decorative third) -->
<path d="M95.5 307.4 L117.3 303.2 L139.1 298.9 L160.8 294.5 L182.6 290.1 L204.4 285.6 L226.2 281.2 L248.0 276.7 L269.7 272.2 L291.5 267.7 L313.3 263.2 L335.1 258.7 L356.9 254.3 L378.6 249.9 L400.4 245.5 L422.2 241.2 L444.0 236.9 L465.8 232.7 L487.5 228.5 L509.3 224.4 L531.1 220.4 L552.9 216.4 L574.7 212.5 L596.4 208.7 L618.2 205.0 L640.0 201.3" fill="none" stroke="#C8860E" stroke-width="1.5"/>
<!-- inline curve labels -->
<text x="150" y="118" font-family="'Inter',-apple-system,'Helvetica Neue',sans-serif" font-size="11" fill="#C8102E">large effect</text>
<text x="300" y="118" font-family="'Inter',-apple-system,'Helvetica Neue',sans-serif" font-size="11" fill="#545454">medium effect</text>
<text x="540" y="198" font-family="'Inter',-apple-system,'Helvetica Neue',sans-serif" font-size="11" fill="#C8860E">small effect</text>
</svg>
