<!-- Multiple comparisons inflate the false-positive rate | Book: The Research Paper Recipe | Chapter: 07-statistics | Figure: 04 | Generated: 2026-05-29 | Source: pantry/07-statistics-cajal.md -->
<svg viewBox="0 0 700 420" xmlns="http://www.w3.org/2000/svg" role="img" aria-labelledby="fig-title-04 fig-desc-04"><title id="fig-title-04">Multiple comparisons inflate the false-positive rate</title><desc id="fig-desc-04">The probability of at least one false positive across many independent tests, each at alpha 0.05, climbs from 5 percent at one test to about 64 percent by twenty tests, far above the nominal threshold.</desc><metadata><cajal:figure xmlns:cajal="https://bearbrown.ai/cajal/1.0" book-slug="the-research-paper-recipe" chapter="07-statistics" figure-number="04" date-generated="2026-05-29"/></metadata>
<rect x="0" y="0" width="700" height="420" fill="#FFFFFF"/>
<text x="350" y="32" text-anchor="middle" font-family="'EB Garamond',Georgia,serif" font-size="16" fill="#2a1a0e">Running many tests inflates false positives</text>
<rect x="90" y="90" width="550" height="230" fill="#F5F5F5"/>
<line x1="90" y1="320" x2="640" y2="320" stroke="#2a1a0e" stroke-width="1.2"/>
<line x1="90" y1="90" x2="90" y2="320" stroke="#2a1a0e" stroke-width="1.2"/>
<!-- y ticks -->
<line x1="86" y1="320" x2="90" y2="320" stroke="#2a1a0e" stroke-width="1"/><text x="80" y="324" text-anchor="end" font-family="'JetBrains Mono','Fira Code',monospace" font-size="11" fill="#545454">0%</text>
<line x1="86" y1="262.5" x2="90" y2="262.5" stroke="#2a1a0e" stroke-width="1"/><text x="80" y="266" text-anchor="end" font-family="'JetBrains Mono','Fira Code',monospace" font-size="11" fill="#545454">25%</text>
<line x1="86" y1="205" x2="90" y2="205" stroke="#2a1a0e" stroke-width="1"/><text x="80" y="209" text-anchor="end" font-family="'JetBrains Mono','Fira Code',monospace" font-size="11" fill="#545454">50%</text>
<line x1="86" y1="147.5" x2="90" y2="147.5" stroke="#2a1a0e" stroke-width="1"/><text x="80" y="151" text-anchor="end" font-family="'JetBrains Mono','Fira Code',monospace" font-size="11" fill="#545454">75%</text>
<line x1="86" y1="90" x2="90" y2="90" stroke="#2a1a0e" stroke-width="1"/><text x="80" y="94" text-anchor="end" font-family="'JetBrains Mono','Fira Code',monospace" font-size="11" fill="#545454">100%</text>
<!-- x ticks 1,10,20,30 -->
<line x1="90" y1="320" x2="90" y2="324" stroke="#2a1a0e" stroke-width="1"/><text x="90" y="338" text-anchor="middle" font-family="'JetBrains Mono','Fira Code',monospace" font-size="11" fill="#545454">1</text>
<line x1="260.7" y1="320" x2="260.7" y2="324" stroke="#2a1a0e" stroke-width="1"/><text x="260.7" y="338" text-anchor="middle" font-family="'JetBrains Mono','Fira Code',monospace" font-size="11" fill="#545454">10</text>
<line x1="450.3" y1="320" x2="450.3" y2="324" stroke="#2a1a0e" stroke-width="1"/><text x="450.3" y="338" text-anchor="middle" font-family="'JetBrains Mono','Fira Code',monospace" font-size="11" fill="#545454">20</text>
<line x1="640" y1="320" x2="640" y2="324" stroke="#2a1a0e" stroke-width="1"/><text x="640" y="338" text-anchor="middle" font-family="'JetBrains Mono','Fira Code',monospace" font-size="11" fill="#545454">30</text>
<text x="365" y="362" text-anchor="middle" font-family="'Inter',-apple-system,'Helvetica Neue',sans-serif" font-size="12" fill="#2a1a0e">Number of independent tests</text>
<text x="34" y="205" text-anchor="middle" font-family="'Inter',-apple-system,'Helvetica Neue',sans-serif" font-size="12" fill="#2a1a0e" transform="rotate(-90 34 205)">P(at least one false positive)</text>
<!-- baseline 0.05 -->
<line x1="90" y1="308.5" x2="640" y2="308.5" stroke="#545454" stroke-width="1" stroke-dasharray="5 3"/>
<text x="636" y="303" text-anchor="end" font-family="'JetBrains Mono','Fira Code',monospace" font-size="11" fill="#545454">single test 5%</text>
<!-- rising curve (red emphasis) -->
<path d="M90.0 308.5 L109.0 297.6 L127.9 287.2 L146.9 277.3 L165.9 268.0 L184.8 259.1 L203.8 250.6 L222.8 242.6 L241.7 235.0 L260.7 227.7 L279.7 220.8 L298.6 214.3 L317.6 208.1 L336.6 202.2 L355.5 196.6 L374.5 191.2 L393.4 186.2 L412.4 181.4 L431.4 176.8 L450.3 172.5 L469.3 168.3 L488.3 164.4 L507.2 160.7 L526.2 157.2 L545.2 153.8 L564.1 150.6 L583.1 147.6 L602.1 144.7 L621.0 142.0 L640.0 139.4" fill="none" stroke="#C8102E" stroke-width="1.8"/>
<!-- marker at 20 tests -->
<circle cx="450.3" cy="172.5" r="4" fill="#C8102E"/>
<line x1="450.3" y1="172.5" x2="450.3" y2="320" stroke="#545454" stroke-width="0.8" stroke-dasharray="3 3"/>
<text x="460" y="166" font-family="'JetBrains Mono','Fira Code',monospace" font-size="11" fill="#C8102E">~64% by 20 tests</text>
</svg>
